<mxfile host="app.diagrams.net" modified="2024-05-21T18:51:46.278Z" agent="Mozilla/5.0 (Windows NT 10.0; Win64; x64) AppleWebKit/537.36 (KHTML, like Gecko) Chrome/124.0.0.0 Safari/537.36" version="24.4.4" etag="ft5Gb5hEwH1Onqdgf0tM" type="github">
  <diagram name="PÃ¡gina-1" id="Fibls7sjq4vc2C7qTIg3">
    <mxGraphModel>
      <root>
        <mxCell id="0" />
        <mxCell id="1" parent="0" />
      </root>
    </mxGraphModel>
  </diagram>
</mxfile>
